<svg xmlns="http://www.w3.org/2000/svg" version="1.1" xmlns:xlink="http://www.w3.org/1999/xlink" width="1061" height="1008"><svg width="1061" height="1008" viewBox="0 0 1061 1008" fill="none" xmlns="http://www.w3.org/2000/svg">
<path d="M761 -6.55671e-06C926.685 -2.93554e-06 1061 134.315 1061 300L1061 950C1061 977.614 1038.61 1000 1011 1000L304 1000C138.315 1000 3.99998 865.685 3.99998 700L4 50C4 22.3858 26.3858 -2.26122e-05 54 -2.20087e-05L761 -6.55671e-06Z" fill="black"></path>
<g filter="url(#filter0_d_22_30)">
<path d="M203.581 525.022C166.082 511.599 125.407 534.595 117.574 573.646C111.205 605.404 129.084 637.029 159.579 647.945L1004 950.214C1004 977.71 981.709 1000 954.213 1000L303.999 1000C138.314 1000 4.00017 865.685 4.00005 700L4.00006 202.867L4.00201 202.867L4.00201 188.622L805.469 475.515C842.968 488.938 883.643 465.942 891.476 426.891C897.845 395.133 879.966 363.508 849.471 352.592L4.00201 49.9482L4.00201 49.625C4.17524 22.1881 26.4696 -2.13646e-05 53.9473 -2.07641e-05L703.999 -6.55673e-06C869.685 -2.93556e-06 1004 134.315 1004 300L1004 811.54L203.581 525.022ZM718.379 566.575C724.748 534.818 706.869 503.192 676.374 492.276L376.394 384.895C338.895 371.472 298.219 394.467 290.387 433.519C284.017 465.276 301.897 496.902 332.393 507.818L632.372 615.198C669.871 628.621 710.546 605.626 718.379 566.575ZM1004 950.214L1004 811.54L1004 811.54L1004 950.214L1004 950.214Z" fill="white"></path>
</g>
<defs>
<filter id="SvgjsFilter1001" x="6.10352e-05" y="0" width="1008" height="1008" filterUnits="userSpaceOnUse" color-interpolation-filters="sRGB">
<feFlood flood-opacity="0" result="BackgroundImageFix"></feFlood>
<feColorMatrix in="SourceAlpha" type="matrix" values="0 0 0 0 0 0 0 0 0 0 0 0 0 0 0 0 0 0 127 0" result="hardAlpha"></feColorMatrix>
<feOffset dy="4"></feOffset>
<feGaussianBlur stdDeviation="2"></feGaussianBlur>
<feComposite in2="hardAlpha" operator="out"></feComposite>
<feColorMatrix type="matrix" values="0 0 0 0 0 0 0 0 0 0 0 0 0 0 0 0 0 0 0.25 0"></feColorMatrix>
<feBlend mode="normal" in2="BackgroundImageFix" result="effect1_dropShadow_22_30"></feBlend>
<feBlend mode="normal" in="SourceGraphic" in2="effect1_dropShadow_22_30" result="shape"></feBlend>
</filter>
</defs>
</svg><style>@media (prefers-color-scheme: light) { :root { filter: none; } }
@media (prefers-color-scheme: dark) { :root { filter: none; } }
</style></svg>